<?xml version="1.0" encoding="UTF-8"?>
<svg xmlns="http://www.w3.org/2000/svg" viewBox="-2 -2 25 25">
<path d="M10.6,6.5l-1.3,1.3c1.3.1,2.1.5,2.8,1.1,1.7,1.7,1.7,4.1,0,5.9l-3.2,3.2c-1.7,1.7-4.2,1.7-5.9,0-1.7-1.7-1.7-4.1,0-5.9l1.9-1.9c-.3-.6-.3-1.3-.2-2l-2.9,2.9c-2.3,2.3-2.4,5.8,0,8.1,2.4,2.4,5.8,2.4,8.1,0l3.3-3.3c2.3-2.3,2.4-5.8,0-8.1-.6-.6-1.4-1-2.6-1.3ZM10.4,14.5l1.3-1.3c-1.3-.1-2.1-.5-2.8-1.1-1.7-1.7-1.7-4.1,0-5.9l3.2-3.2c1.7-1.7,4.2-1.7,5.9,0,1.7,1.7,1.7,4.1,0,5.9l-1.9,1.9c.3.6.3,1.3.2,2l2.9-2.9c2.3-2.3,2.4-5.8,0-8.1-2.4-2.4-5.8-2.4-8.1,0l-3.3,3.3c-2.3,2.3-2.4,5.8,0,8.1.6.6,1.4,1,2.6,1.3Z"/>
</svg>