<svg viewBox="0 0 26 14" xmlns="http://www.w3.org/2000/svg">
<g fill="none" stroke="#000">
<path d="m7.1571 4.7978c.4.2.8.4 1.1.7 1.3 1.3 1.3 3.2 0 4.6002l-2.2 2.2c-1.3 1.3-3.3 1.4-4.6 0-1.29997-1.3-1.29997-3.2002 0-4.6002l1.6-1.6"/>
<path d="m6.4571 8.9978c-.4-.2-.7-.4-1-.7-1.3-1.3-1.3-3.2 0-4.6l2.2-2.2c1.3-1.3 3.2999-1.4 4.5999 0 1.3 1.3 1.3 3.2 0 4.6l-1.6 1.6"/>
</g>
<path d="m19 14c3.8 0 6.3-3 6.3-4s-2.7-4-6.3-4c-3.8 0-6.5 3-6.5 4s2.7 4 6.5 4zm0-1.3c-1.5 0-2.7-1.1-2.7-2.7 0-1.5 1.1-2.7 2.7-2.7 1.5 0 2.7 1.1 2.7 2.7 0 1.5-1.1 2.7-2.7 2.7zm0-1.5c.6 0 1.1-.6 1.1-1.1 0-.6-.6-1.1-1.1-1.1-.6 0-1.1.6-1.1 1.1 0 .6.6 1.1 1.1 1.1z"/>
</svg>